<?xml version="1.0" encoding="UTF-8" standalone="no"?>
<!-- Uploaded to: SVG Repo, www.svgrepo.com, Generator: SVG Repo Mixer Tools -->

<svg
   width="42"
   height="41.998318"
   version="1.1"
   id="svg1054"
   xmlns="http://www.w3.org/2000/svg"
   xmlns:svg="http://www.w3.org/2000/svg"><defs
   id="defs1048" />

	<path
   d="m 28.491469,41.616866 13.125,-13.125525 c 0.256593,-0.256604 0.384562,-0.591961 0.384562,-0.927975 0,-0.336013 -0.127969,-0.67137 -0.384562,-0.927975 l -5.442282,-5.442498 -14.980875,14.981474 5.442282,5.442499 c 0.512531,0.512552 1.343343,0.512552 1.855875,0 z M 17.719782,19.688051 a 1.96875,1.9688287 0 0 1 -1.96875,-1.968829 1.96875,1.9688287 0 0 1 1.96875,-1.968829 1.96875,1.9688287 0 0 1 1.96875,1.968829 1.96875,1.9688287 0 0 1 -1.96875,1.968829 z m 1.504736,14.517782 14.980886,-14.981485 1.040829,1.04087 -14.980886,14.981485 z M 18.252,33.32219 33.323437,18.249494 c -0.626062,-0.896473 -0.947625,-2.138804 -0.947625,-3.713867 0,-3.562924 1.6275,-7.4185471 1.644563,-7.4566115 0.07022,-0.1660378 0.105656,-0.3412631 0.105656,-0.5164893 0,-0.2178837 -0.05381,-0.4344549 -0.161437,-0.6300252 C 33.771,5.5794243 33.426469,5.333977 33.029437,5.2676931 L 1.5294376,0.0174831 C 1.3430626,-0.01401816 1.1560313,0.00238875 0.97818756,0.04964064 L 15.913125,14.984519 c 0.518437,-0.343888 1.138594,-0.546678 1.806656,-0.546678 1.809281,0 3.28125,1.472028 3.28125,3.281382 0,1.809353 -1.471969,3.281381 -3.28125,3.281381 -1.809281,0 -3.28125,-1.472028 -3.28125,-3.281381 0,-0.66809 0.202781,-1.287615 0.546656,-1.806729 L 0.04959383,0.9776153 c -0.02821875,0.1089418 -0.0485625,0.2205088 -0.0485625,0.3347009 0,0.071534 0.00590625,0.1437244 0.01771875,0.2159148 l 5.25000002,31.50126 c 0.066281,0.397047 0.3117187,0.742248 0.6647812,0.93585 0.3537188,0.193602 0.7769998,0.21329 1.1471248,0.05447 2.1945,-0.940444 8.2129689,-2.762923 11.1713439,-0.697621 z"
   style="stroke-width:1"
   />


</svg>
